<svg xmlns="http://www.w3.org/2000/svg" xmlns:xlink="http://www.w3.org/1999/xlink" width="1366" zoomAndPan="magnify" viewBox="0 0 1024.5 576" height="768" preserveAspectRatio="xMidYMid meet" version="1.0"><defs><clipPath id="d20722147a"><path d="M 256.988281 177.546875 L 301.96875 177.546875 L 301.96875 222.527344 L 256.988281 222.527344 Z M 256.988281 177.546875 " clip-rule="nonzero"/></clipPath><clipPath id="e35201938e"><path d="M 501 127.183594 L 629 127.183594 L 629 298 L 501 298 Z M 501 127.183594 " clip-rule="nonzero"/></clipPath><clipPath id="5344ad5d91"><path d="M 502 127.183594 L 629 127.183594 L 629 213 L 502 213 Z M 502 127.183594 " clip-rule="nonzero"/></clipPath></defs><g clip-path="url(#d20722147a)"><path fill="#ffffff" d="M 279.292969 177.546875 C 277.117188 195.914062 275.355469 197.675781 256.988281 199.847656 C 257.027344 199.855469 257.066406 199.859375 257.101562 199.863281 L 257.105469 199.863281 C 275.363281 202.03125 277.121094 203.824219 279.292969 222.152344 C 281.464844 203.785156 283.226562 202.023438 301.59375 199.847656 C 283.226562 197.675781 281.464844 195.914062 279.292969 177.546875 Z M 279.292969 177.546875 " fill-opacity="1" fill-rule="nonzero"/></g><path fill="#d4dae8" d="M 628.3125 357.65625 C 628.3125 359.742188 626.925781 361.777344 624.199219 363.332031 L 522.390625 422.207031 C 517.007812 425.320312 508.300781 425.320312 502.917969 422.207031 L 326.199219 319.40625 C 323.546875 317.851562 322.207031 315.8125 322.207031 313.777344 L 322.15625 308.148438 C 322.15625 308.246094 322.179688 308.316406 322.179688 308.414062 L 322.15625 294.808594 C 322.132812 292.75 323.496094 290.6875 326.226562 289.132812 L 390.371094 252.054688 L 393.097656 235.289062 L 395.109375 249.324219 L 428.054688 230.261719 C 429.320312 229.542969 430.757812 229.015625 432.265625 228.609375 L 432.382812 187.21875 L 450.949219 176.417969 L 469.613281 187.195312 L 469.515625 217.46875 L 478.34375 212.34375 L 497.007812 223.121094 L 496.914062 253.398438 L 505.742188 248.269531 L 524.425781 259.074219 L 524.355469 274.953125 L 624.246094 333.058594 C 626.925781 334.640625 628.265625 336.652344 628.265625 338.6875 Z M 628.3125 357.65625 " fill-opacity="1" fill-rule="nonzero"/><g clip-path="url(#e35201938e)"><path fill="#d4dae8" d="M 623.214844 193.3125 L 510.8125 128.339844 C 509.332031 127.511719 508.03125 127.421875 507.082031 127.984375 L 502.96875 130.378906 C 501.992188 130.914062 501.382812 132.082031 501.375 133.761719 L 501.355469 141 L 501.480469 141.070312 L 501.25 222.3125 C 501.242188 225.636719 503.597656 229.695312 506.488281 231.367188 L 618.894531 296.335938 C 620.464844 297.242188 621.863281 297.230469 622.828125 296.519531 L 626.679688 294.277344 C 627.59375 293.714844 628.1875 292.558594 628.1875 290.902344 L 628.421875 209.605469 L 628.453125 202.375 C 628.453125 199.058594 626.113281 195 623.214844 193.3125 Z M 536.898438 148.261719 C 536.898438 148.261719 536.898438 148.257812 536.894531 148.257812 L 555.40625 158.957031 Z M 535.382812 147.382812 L 527.742188 142.96875 C 527.742188 142.964844 527.738281 142.964844 527.734375 142.960938 L 535.386719 147.382812 Z M 526.230469 142.09375 L 518.597656 137.683594 C 518.59375 137.679688 518.59375 137.679688 518.589844 137.675781 L 526.234375 142.09375 C 526.234375 142.09375 526.230469 142.09375 526.230469 142.09375 Z M 624.253906 210.890625 L 624.273438 204.789062 C 624.277344 203.570312 623.957031 202.242188 623.40625 200.972656 C 623.957031 202.242188 624.28125 203.5625 624.28125 204.777344 Z M 517.085938 136.808594 C 517.085938 136.808594 517.082031 136.808594 517.082031 136.808594 L 506.628906 130.765625 C 506.511719 130.699219 506.40625 130.667969 506.292969 130.609375 C 506.410156 130.667969 506.519531 130.699219 506.640625 130.769531 Z M 517.085938 136.808594 " fill-opacity="1" fill-rule="nonzero"/></g><path fill="#e4e8f4" d="M 322.144531 294.816406 L 322.203125 313.78125 C 322.203125 315.8125 323.539062 317.84375 326.203125 319.410156 L 502.917969 422.195312 C 508.308594 425.328125 517.003906 425.328125 522.398438 422.195312 L 624.203125 363.347656 C 626.929688 361.777344 628.320312 359.746094 628.320312 357.65625 L 628.261719 338.695312 C 628.261719 340.726562 626.929688 342.816406 624.203125 344.382812 L 522.339844 403.234375 C 516.945312 406.367188 508.25 406.367188 502.859375 403.234375 L 326.144531 300.445312 C 323.480469 298.878906 322.144531 296.847656 322.144531 294.816406 Z M 322.144531 294.816406 " fill-opacity="1" fill-rule="nonzero"/><path fill="#474b59" d="M 322.144531 308.148438 L 322.203125 313.78125 C 322.203125 315.8125 323.539062 317.84375 326.203125 319.410156 L 502.917969 422.195312 C 508.308594 425.328125 517.003906 425.328125 522.398438 422.195312 L 624.203125 363.34375 C 626.929688 361.777344 628.320312 359.746094 628.320312 357.65625 L 628.261719 352.027344 C 628.261719 354.058594 626.929688 356.148438 624.203125 357.714844 L 522.339844 416.566406 C 516.945312 419.699219 508.25 419.699219 502.859375 416.566406 L 326.144531 313.78125 C 323.480469 312.210938 322.144531 310.179688 322.144531 308.148438 Z M 322.144531 308.148438 " fill-opacity="1" fill-rule="nonzero"/><path fill="#474b59" d="M 326.234375 289.121094 C 320.828125 292.246094 320.800781 297.292969 326.167969 300.417969 L 502.875 403.21875 C 508.246094 406.339844 516.953125 406.339844 522.355469 403.21875 L 624.1875 344.363281 C 629.59375 341.238281 629.621094 336.191406 624.25 333.066406 L 447.542969 230.265625 C 442.175781 227.144531 433.46875 227.144531 428.0625 230.265625 Z M 326.234375 289.121094 " fill-opacity="1" fill-rule="nonzero"/><path fill="#ffffff" d="M 344.171875 302.644531 L 500.476562 393.53125 C 501.289062 394.054688 502.679688 394.054688 503.609375 393.53125 L 605.417969 334.679688 C 606.226562 334.21875 606.226562 333.40625 605.417969 332.882812 L 449.109375 241.996094 C 448.300781 241.53125 446.90625 241.53125 446.039062 241.996094 L 344.230469 300.84375 C 343.363281 301.367188 343.363281 302.179688 344.171875 302.644531 Z M 344.171875 302.644531 " fill-opacity="1" fill-rule="nonzero"/><path fill="#363a44" d="M 558.761719 365.332031 C 555.875 367 555.859375 369.695312 558.691406 371.339844 C 561.558594 373.011719 566.207031 373.011719 569.097656 371.34375 C 571.945312 369.695312 571.960938 367 569.09375 365.332031 C 566.261719 363.683594 561.613281 363.683594 558.761719 365.332031 Z M 558.761719 365.332031 " fill-opacity="1" fill-rule="nonzero"/><path fill="#363a44" d="M 370.34375 271.644531 L 374.429688 274.019531 L 401.855469 258.167969 L 397.773438 255.792969 Z M 370.34375 271.644531 " fill-opacity="1" fill-rule="nonzero"/><path fill="#474b59" d="M 370.570312 331.351562 C 369.464844 330.710938 368.566406 331.273438 368.5625 332.542969 C 368.558594 333.859375 369.453125 335.410156 370.554688 336.046875 L 390.199219 347.402344 C 391.304688 348.039062 392.246094 347.550781 392.25 346.234375 C 392.253906 344.964844 391.316406 343.34375 390.214844 342.703125 Z M 370.570312 331.351562 " fill-opacity="1" fill-rule="nonzero"/><path fill="#5b5e71" d="M 342.945312 316.066406 C 343.332031 315.875 343.84375 315.875 344.417969 316.195312 L 363.992188 327.53125 C 365.144531 328.234375 366.039062 329.835938 366.039062 331.050781 C 366.039062 331.757812 365.785156 332.207031 365.464844 332.398438 L 366.808594 331.628906 C 367.125 331.371094 367.382812 330.925781 367.382812 330.285156 C 367.382812 329.003906 366.488281 327.402344 365.335938 326.761719 L 345.761719 315.425781 C 345.1875 315.105469 344.675781 315.105469 344.289062 315.300781 Z M 342.945312 316.066406 " fill-opacity="1" fill-rule="nonzero"/><path fill="#5b5e71" d="M 370.515625 330.414062 L 369.171875 331.246094 C 369.558594 330.988281 370.003906 331.050781 370.582031 331.371094 L 390.21875 342.707031 C 391.304688 343.347656 392.265625 344.949219 392.265625 346.230469 C 392.265625 346.871094 392.011719 347.316406 391.625 347.507812 L 393.03125 346.742188 C 393.351562 346.546875 393.609375 346.101562 393.609375 345.460938 C 393.609375 344.179688 392.648438 342.578125 391.5625 341.9375 L 371.921875 330.539062 C 371.347656 330.21875 370.902344 330.21875 370.515625 330.414062 Z M 370.515625 330.414062 " fill-opacity="1" fill-rule="nonzero"/><path fill="#474b59" d="M 344.390625 316.21875 C 343.246094 315.558594 342.34375 316.121094 342.339844 317.386719 C 342.335938 318.703125 343.234375 320.257812 344.375 320.917969 L 363.980469 332.25 C 365.125 332.910156 366.027344 332.394531 366.03125 331.078125 C 366.03125 329.8125 365.136719 328.210938 363.992188 327.550781 Z M 344.390625 316.21875 " fill-opacity="1" fill-rule="nonzero"/><path fill="#cad0dd" d="M 469.613281 187.199219 L 469.363281 274.460938 L 450.808594 285.253906 L 451.054688 197.996094 Z M 469.613281 187.199219 " fill-opacity="1" fill-rule="nonzero"/><path fill="#d4dae8" d="M 451.054688 197.996094 L 450.808594 285.253906 L 432.144531 274.46875 L 432.390625 187.210938 Z M 451.054688 197.996094 " fill-opacity="1" fill-rule="nonzero"/><path fill="#e4e8f4" d="M 469.613281 187.199219 L 451.054688 197.996094 L 432.390625 187.210938 L 450.953125 176.414062 Z M 469.613281 187.199219 " fill-opacity="1" fill-rule="nonzero"/><path fill="#4562ef" d="M 497.015625 223.132812 L 496.769531 290.296875 L 478.210938 301.09375 L 478.457031 233.929688 Z M 497.015625 223.132812 " fill-opacity="1" fill-rule="nonzero"/><path fill="#576cfb" d="M 478.457031 233.929688 L 478.210938 301.09375 L 459.53125 290.296875 L 459.777344 223.132812 Z M 478.457031 233.929688 " fill-opacity="1" fill-rule="nonzero"/><path fill="#748bfd" d="M 497.015625 223.132812 L 478.457031 233.929688 L 459.777344 223.132812 L 478.335938 212.335938 Z M 497.015625 223.132812 " fill-opacity="1" fill-rule="nonzero"/><path fill="#6eba6e" d="M 524.417969 259.0625 L 524.171875 326.230469 L 505.613281 316.933594 L 505.859375 269.859375 Z M 524.417969 259.0625 " fill-opacity="1" fill-rule="nonzero"/><path fill="#75ca75" d="M 505.859375 269.859375 L 505.613281 316.933594 L 486.933594 306.136719 L 487.179688 259.0625 Z M 505.859375 269.859375 " fill-opacity="1" fill-rule="nonzero"/><path fill="#9ad898" d="M 524.417969 259.0625 L 505.859375 269.859375 L 487.179688 259.0625 L 505.738281 248.265625 Z M 524.417969 259.0625 " fill-opacity="1" fill-rule="nonzero"/><path fill="#efac41" d="M 551.804688 294.984375 L 551.558594 321.960938 L 533 332.757812 L 533.246094 305.78125 Z M 551.804688 294.984375 " fill-opacity="1" fill-rule="nonzero"/><path fill="#f9bb4a" d="M 533.246094 305.78125 L 533 332.757812 L 514.316406 321.960938 L 514.566406 294.984375 Z M 533.246094 305.78125 " fill-opacity="1" fill-rule="nonzero"/><path fill="#fed57a" d="M 551.804688 294.984375 L 533.246094 305.78125 L 514.566406 294.984375 L 533.125 284.1875 Z M 551.804688 294.984375 " fill-opacity="1" fill-rule="nonzero"/><path fill="#37617b" d="M 579.207031 321.109375 L 578.960938 337.800781 L 560.402344 348.597656 L 560.648438 331.90625 Z M 579.207031 321.109375 " fill-opacity="1" fill-rule="nonzero"/><path fill="#416e84" d="M 560.648438 331.90625 L 560.402344 348.597656 L 541.722656 337.800781 L 541.96875 321.109375 Z M 560.648438 331.90625 " fill-opacity="1" fill-rule="nonzero"/><path fill="#4c7891" d="M 579.207031 321.109375 L 560.648438 331.90625 L 541.96875 321.109375 L 560.527344 310.3125 Z M 579.207031 321.109375 " fill-opacity="1" fill-rule="nonzero"/><path fill="#f34858" d="M 525.355469 322.28125 C 525.902344 322.332031 526.542969 322.589844 527.207031 322.972656 C 529.269531 324.160156 531.59375 326.628906 532.875 328.90625 C 534.582031 331.921875 535.484375 335.199219 536.386719 338.378906 C 538.449219 345.882812 539.707031 359.011719 539.113281 365.398438 L 543.257812 362.988281 C 543.828125 356.601562 542.570312 343.472656 540.53125 335.96875 C 539.628906 332.789062 538.703125 329.535156 537.023438 326.519531 C 535.742188 324.242188 533.390625 321.746094 531.351562 320.558594 C 530.6875 320.179688 530.046875 319.941406 529.480469 319.871094 C 528.816406 319.800781 528.246094 319.941406 527.769531 320.226562 L 523.648438 322.613281 C 524.121094 322.355469 524.667969 322.210938 525.355469 322.28125 Z M 525.355469 322.28125 " fill-opacity="1" fill-rule="nonzero"/><path fill="#f34858" d="M 462.171875 278.644531 C 464.757812 280.140625 467.484375 283.390625 469.167969 286.785156 C 471.589844 291.703125 472.300781 296.78125 472.847656 301.578125 C 472.988281 303.027344 473.203125 304.710938 474.148438 306.113281 C 474.765625 307.039062 475.574219 307.65625 476.355469 308.226562 C 476.925781 308.605469 477.472656 308.964844 478.039062 309.273438 C 482.6875 311.976562 487.359375 312.429688 490.65625 310.507812 L 494.78125 308.09375 C 491.484375 310.019531 486.8125 309.566406 482.164062 306.863281 C 481.59375 306.550781 481.046875 306.195312 480.503906 305.816406 C 479.695312 305.246094 478.914062 304.628906 478.296875 303.726562 C 477.347656 302.300781 477.109375 300.640625 476.96875 299.191406 C 476.421875 294.371094 475.710938 289.292969 473.292969 284.375 C 471.632812 280.980469 468.902344 277.726562 466.292969 276.234375 C 465.109375 275.542969 463.921875 275.210938 462.902344 275.402344 C 462.476562 275.472656 462.121094 275.617188 461.789062 275.804688 L 457.640625 278.214844 C 457.972656 278.027344 458.355469 277.882812 458.757812 277.8125 C 459.800781 277.621094 460.964844 277.953125 462.171875 278.644531 Z M 462.171875 278.644531 " fill-opacity="1" fill-rule="nonzero"/><path fill="#f34858" d="M 412.105469 245.902344 C 412.367188 245.785156 412.601562 245.640625 412.863281 245.546875 C 414.074219 245.09375 415.355469 244.761719 416.777344 244.832031 C 418.507812 244.976562 420.570312 245.710938 422.636719 246.898438 C 426.546875 249.152344 430.414062 253.070312 431.695312 257.628906 C 433.214844 262.972656 437.839844 282.867188 445.308594 287.164062 C 447.136719 288.234375 449.152344 288.351562 451.308594 287.09375 L 455.457031 284.683594 C 453.273438 285.941406 451.28125 285.824219 449.457031 284.777344 C 441.984375 280.457031 437.359375 260.5625 435.84375 255.21875 C 434.539062 250.660156 430.671875 246.765625 426.757812 244.488281 C 424.695312 243.300781 422.632812 242.566406 420.921875 242.421875 C 419.476562 242.351562 418.195312 242.683594 416.988281 243.136719 C 416.726562 243.253906 416.488281 243.371094 416.25 243.515625 Z M 412.105469 245.902344 " fill-opacity="1" fill-rule="nonzero"/><path fill="#f34858" d="M 499.976562 305.425781 C 500.238281 305.519531 500.476562 305.640625 500.738281 305.78125 C 502.800781 306.96875 504.792969 309.507812 506.074219 312.121094 C 507.496094 315.089844 508.136719 318.152344 508.46875 321 C 508.800781 323.800781 509.296875 327.410156 511.527344 329.289062 C 511.742188 329.453125 511.957031 329.59375 512.144531 329.738281 C 512.523438 329.953125 512.902344 330.09375 513.308594 330.234375 C 515.15625 330.855469 516.914062 330.734375 518.265625 329.953125 L 522.386719 327.539062 C 521.035156 328.324219 519.304688 328.441406 517.429688 327.824219 C 517.050781 327.683594 516.671875 327.539062 516.292969 327.328125 C 516.078125 327.207031 515.863281 327.066406 515.652344 326.875 C 513.421875 325 512.921875 321.390625 512.589844 318.589844 C 512.285156 315.765625 511.640625 312.679688 510.195312 309.710938 C 508.914062 307.121094 506.921875 304.582031 504.859375 303.371094 C 504.621094 303.230469 504.363281 303.109375 504.125 303.015625 C 502.605469 302.398438 501.375 302.609375 500.304688 303.253906 L 496.65625 305.402344 C 497.605469 304.972656 498.675781 304.902344 499.976562 305.425781 Z M 499.976562 305.425781 " fill-opacity="1" fill-rule="nonzero"/><path fill="#f9607f" d="M 422.625 246.902344 C 420.566406 245.714844 418.5 244.976562 416.785156 244.839844 C 415.34375 244.753906 414.066406 245.082031 412.851562 245.550781 C 404.835938 248.765625 400.667969 273.421875 402.332031 286.332031 L 539.117188 365.390625 C 539.699219 359.007812 538.445312 345.878906 536.390625 338.375 C 535.488281 335.203125 534.570312 331.933594 532.882812 328.914062 C 531.605469 326.636719 529.265625 324.160156 527.210938 322.972656 C 526.542969 322.585938 525.90625 322.335938 525.347656 322.273438 C 522.070312 321.953125 521.4375 326.523438 519.535156 328.859375 C 518.132812 330.5625 515.828125 331.0625 513.296875 330.226562 C 512.917969 330.097656 512.535156 329.945312 512.15625 329.726562 C 511.945312 329.605469 511.734375 329.460938 511.523438 329.289062 C 509.300781 327.410156 508.796875 323.804688 508.46875 321 C 508.144531 318.160156 507.5 315.082031 506.066406 312.125 C 504.789062 309.515625 502.792969 306.980469 500.730469 305.785156 C 500.484375 305.644531 500.238281 305.519531 499.988281 305.417969 C 496.21875 303.886719 494.28125 307.546875 491.894531 309.621094 C 488.589844 312.511719 483.300781 312.324219 478.03125 309.277344 C 477.472656 308.957031 476.917969 308.605469 476.367188 308.21875 C 475.5625 307.648438 474.777344 307.039062 474.15625 306.121094 C 473.207031 304.71875 472.984375 303.035156 472.835938 301.589844 C 472.304688 296.78125 471.589844 291.695312 469.160156 286.78125 C 467.496094 283.378906 464.769531 280.144531 462.164062 278.636719 C 460.96875 277.945312 459.796875 277.621094 458.765625 277.808594 C 454.957031 278.503906 454.773438 284.867188 451.640625 286.898438 C 449.347656 288.367188 447.238281 288.289062 445.316406 287.175781 C 437.847656 282.863281 433.21875 262.976562 431.703125 257.628906 C 430.414062 253.074219 426.542969 249.164062 422.625 246.902344 Z M 422.625 246.902344 " fill-opacity="1" fill-rule="nonzero"/><path fill="#cad0dd" d="M 512.671875 329.003906 C 513.214844 329.050781 513.855469 329.3125 514.519531 329.691406 C 516.582031 330.878906 518.910156 333.347656 520.1875 335.628906 C 521.898438 338.644531 522.796875 341.917969 523.699219 345.101562 C 525.761719 352.605469 527.019531 365.734375 526.425781 372.121094 L 530.574219 369.710938 C 531.140625 363.324219 529.882812 350.191406 527.84375 342.691406 C 526.945312 339.507812 526.019531 336.257812 524.335938 333.242188 C 523.054688 330.960938 520.707031 328.46875 518.667969 327.28125 C 518.003906 326.902344 517.363281 326.664062 516.792969 326.59375 C 516.128906 326.519531 515.558594 326.664062 515.085938 326.949219 L 510.960938 329.335938 C 511.4375 329.074219 511.984375 328.933594 512.671875 329.003906 Z M 512.671875 329.003906 " fill-opacity="1" fill-rule="nonzero"/><path fill="#cad0dd" d="M 449.488281 285.363281 C 452.070312 286.859375 454.800781 290.113281 456.484375 293.507812 C 458.902344 298.421875 459.613281 303.503906 460.160156 308.300781 C 460.300781 309.75 460.515625 311.433594 461.464844 312.835938 C 462.082031 313.761719 462.886719 314.378906 463.671875 314.949219 C 464.238281 315.328125 464.785156 315.683594 465.355469 315.992188 C 470.003906 318.699219 474.675781 319.148438 477.972656 317.226562 L 482.09375 314.816406 C 478.796875 316.738281 474.125 316.289062 469.476562 313.582031 C 468.90625 313.273438 468.363281 312.917969 467.816406 312.539062 C 467.011719 311.96875 466.226562 311.351562 465.609375 310.449219 C 464.660156 309.023438 464.425781 307.363281 464.28125 305.914062 C 463.738281 301.09375 463.023438 296.011719 460.605469 291.097656 C 458.945312 287.703125 456.21875 284.449219 453.609375 282.953125 C 452.421875 282.265625 451.238281 281.933594 450.21875 282.121094 C 449.789062 282.195312 449.433594 282.335938 449.101562 282.527344 L 444.957031 284.9375 C 445.289062 284.746094 445.667969 284.605469 446.070312 284.535156 C 447.113281 284.34375 448.277344 284.675781 449.488281 285.363281 Z M 449.488281 285.363281 " fill-opacity="1" fill-rule="nonzero"/><path fill="#cad0dd" d="M 399.417969 252.621094 C 399.679688 252.503906 399.917969 252.363281 400.175781 252.265625 C 401.386719 251.816406 402.667969 251.484375 404.089844 251.554688 C 405.824219 251.695312 407.886719 252.433594 409.949219 253.621094 C 413.863281 255.875 417.730469 259.792969 419.007812 264.351562 C 420.527344 269.695312 425.152344 289.589844 432.625 293.886719 C 434.449219 294.957031 436.464844 295.074219 438.625 293.816406 L 442.769531 291.40625 C 440.589844 292.664062 438.597656 292.542969 436.769531 291.5 C 429.296875 287.179688 424.671875 267.28125 423.15625 261.941406 C 421.851562 257.382812 417.984375 253.488281 414.074219 251.210938 C 412.007812 250.023438 409.945312 249.285156 408.238281 249.144531 C 406.789062 249.074219 405.511719 249.40625 404.300781 249.855469 C 404.039062 249.976562 403.804688 250.09375 403.566406 250.234375 Z M 399.417969 252.621094 " fill-opacity="1" fill-rule="nonzero"/><path fill="#cad0dd" d="M 487.292969 312.144531 C 487.554688 312.242188 487.789062 312.359375 488.050781 312.503906 C 490.113281 313.6875 492.105469 316.230469 493.386719 318.84375 C 494.8125 321.808594 495.449219 324.871094 495.78125 327.722656 C 496.117188 330.523438 496.613281 334.132812 498.84375 336.007812 C 499.054688 336.171875 499.269531 336.316406 499.460938 336.460938 C 499.839844 336.671875 500.21875 336.816406 500.621094 336.957031 C 502.472656 337.574219 504.226562 337.457031 505.578125 336.671875 L 509.699219 334.261719 C 508.347656 335.046875 506.617188 335.164062 504.746094 334.546875 C 504.363281 334.40625 503.984375 334.261719 503.605469 334.046875 C 503.390625 333.929688 503.179688 333.785156 502.964844 333.597656 C 500.734375 331.722656 500.238281 328.113281 499.90625 325.3125 C 499.597656 322.484375 498.957031 319.398438 497.511719 316.429688 C 496.230469 313.84375 494.238281 311.300781 492.175781 310.089844 C 491.9375 309.949219 491.675781 309.832031 491.4375 309.734375 C 489.921875 309.117188 488.6875 309.332031 487.621094 309.972656 L 483.972656 312.121094 C 484.921875 311.695312 485.988281 311.625 487.292969 312.144531 Z M 487.292969 312.144531 " fill-opacity="1" fill-rule="nonzero"/><path fill="#e4e8f4" d="M 409.9375 253.621094 C 407.882812 252.433594 405.816406 251.699219 404.097656 251.558594 C 402.65625 251.476562 401.382812 251.804688 400.167969 252.269531 C 392.148438 255.488281 387.984375 280.140625 389.648438 293.054688 L 526.433594 372.109375 C 527.011719 365.730469 525.761719 352.601562 523.703125 345.09375 C 522.800781 341.921875 521.886719 338.652344 520.195312 335.636719 C 518.917969 333.355469 516.582031 330.882812 514.527344 329.695312 C 513.859375 329.308594 513.222656 329.058594 512.660156 328.996094 C 509.386719 328.671875 508.75 333.242188 506.847656 335.582031 C 505.449219 337.285156 503.140625 337.78125 500.609375 336.949219 C 500.230469 336.816406 499.851562 336.664062 499.46875 336.445312 C 499.261719 336.324219 499.050781 336.183594 498.839844 336.011719 C 496.613281 334.132812 496.109375 330.523438 495.785156 327.71875 C 495.457031 324.878906 494.8125 321.804688 493.382812 318.847656 C 492.101562 316.234375 490.105469 313.699219 488.042969 312.507812 C 487.796875 312.363281 487.550781 312.242188 487.304688 312.140625 C 483.53125 310.605469 481.59375 314.265625 479.207031 316.34375 C 475.90625 319.230469 470.613281 319.042969 465.34375 315.996094 C 464.789062 315.675781 464.234375 315.324219 463.679688 314.941406 C 462.878906 314.371094 462.089844 313.757812 461.472656 312.84375 C 460.519531 311.4375 460.296875 309.757812 460.148438 308.3125 C 459.617188 303.5 458.902344 298.414062 456.476562 293.503906 C 454.8125 290.101562 452.082031 286.863281 449.476562 285.359375 C 448.28125 284.667969 447.109375 284.339844 446.078125 284.527344 C 442.269531 285.222656 442.085938 291.589844 438.957031 293.617188 C 436.664062 295.085938 434.550781 295.007812 432.628906 293.898438 C 425.164062 289.582031 420.535156 269.695312 419.015625 264.351562 C 417.726562 259.796875 413.855469 255.886719 409.9375 253.621094 Z M 409.9375 253.621094 " fill-opacity="1" fill-rule="nonzero"/><path fill="#75ca75" d="M 380.40625 313.464844 L 392.691406 320.820312 L 404.433594 314.804688 L 393.101562 235.289062 Z M 380.40625 313.464844 " fill-opacity="1" fill-rule="nonzero"/><path fill="#6eba6e" d="M 380.40625 313.464844 L 392.691406 320.820312 L 393.101562 235.289062 Z M 380.40625 313.464844 " fill-opacity="1" fill-rule="nonzero"/><path fill="#fed57a" d="M 402.03125 326.148438 L 414.320312 333.503906 L 426.0625 327.488281 L 414.703125 263.578125 Z M 402.03125 326.148438 " fill-opacity="1" fill-rule="nonzero"/><path fill="#9ad898" d="M 423.65625 338.75 L 435.917969 346.105469 L 447.6875 340.089844 L 436.328125 287.578125 Z M 423.65625 338.75 " fill-opacity="1" fill-rule="nonzero"/><path fill="#f9607f" d="M 445.886719 351.816406 L 457.542969 358.789062 L 469.285156 352.773438 L 457.953125 316.007812 Z M 445.886719 351.816406 " fill-opacity="1" fill-rule="nonzero"/><path fill="#4c7891" d="M 466.882812 364.609375 L 479.171875 371.964844 L 490.914062 365.949219 L 479.554688 341.867188 Z M 466.882812 364.609375 " fill-opacity="1" fill-rule="nonzero"/><path fill="#5b5e71" d="M 488.511719 377.8125 L 501.179688 385.386719 L 512.539062 379.152344 L 501.179688 362.011719 Z M 488.511719 377.8125 " fill-opacity="1" fill-rule="nonzero"/><path fill="#f9bb4a" d="M 402.03125 326.148438 L 414.320312 333.503906 L 414.703125 263.578125 Z M 402.03125 326.148438 " fill-opacity="1" fill-rule="nonzero"/><path fill="#75ca75" d="M 423.65625 338.75 L 435.917969 346.105469 L 436.328125 287.582031 Z M 423.65625 338.75 " fill-opacity="1" fill-rule="nonzero"/><path fill="#fa5168" d="M 445.886719 351.816406 L 457.542969 358.789062 L 457.953125 316.007812 Z M 445.886719 351.816406 " fill-opacity="1" fill-rule="nonzero"/><path fill="#416e84" d="M 466.882812 364.609375 L 479.171875 371.964844 L 479.554688 341.867188 Z M 466.882812 364.609375 " fill-opacity="1" fill-rule="nonzero"/><path fill="#525566" d="M 488.511719 377.8125 L 501.179688 385.386719 L 501.179688 362.011719 Z M 488.511719 377.8125 " fill-opacity="1" fill-rule="nonzero"/><path fill="#cad0dd" d="M 628.421875 209.605469 L 628.1875 290.902344 C 628.1875 292.558594 627.59375 293.714844 626.675781 294.277344 L 622.503906 296.707031 C 623.421875 296.144531 624.015625 294.988281 624.015625 293.328125 L 624.25 212.035156 Z M 628.421875 209.605469 " fill-opacity="1" fill-rule="nonzero"/><path fill="#e4e8f4" d="M 624.378906 212.027344 L 624.148438 293.339844 C 624.136719 296.667969 621.769531 297.996094 618.894531 296.335938 L 506.488281 231.367188 C 503.597656 229.695312 501.242188 225.636719 501.25 222.3125 L 501.480469 141 Z M 624.378906 212.027344 " fill-opacity="1" fill-rule="nonzero"/><path fill="#ffffff" d="M 619.929688 215.117188 L 619.722656 290.78125 L 619.398438 290.960938 L 506.996094 225.988281 L 506.667969 225.425781 L 506.878906 149.761719 Z M 619.929688 215.117188 " fill-opacity="1" fill-rule="nonzero"/><g clip-path="url(#5344ad5d91)"><path fill="#fa5168" d="M 628.453125 202.378906 L 628.421875 209.605469 L 624.25 212.035156 L 624.28125 204.777344 C 624.28125 201.488281 621.941406 197.429688 619.042969 195.742188 L 506.640625 130.769531 C 505.191406 129.941406 503.859375 129.851562 502.910156 130.414062 L 507.082031 127.984375 C 508.03125 127.421875 509.332031 127.511719 510.8125 128.339844 L 623.214844 193.3125 C 626.113281 195 628.453125 199.058594 628.453125 202.378906 Z M 628.453125 202.378906 " fill-opacity="1" fill-rule="nonzero"/></g><path fill="#f9607f" d="M 619.039062 195.734375 C 621.945312 197.414062 624.28125 201.488281 624.273438 204.789062 L 624.253906 212.027344 L 501.355469 141 L 501.375 133.761719 C 501.386719 130.457031 503.738281 129.09375 506.628906 130.765625 Z M 619.039062 195.734375 " fill-opacity="1" fill-rule="nonzero"/><path fill="#e4e8f4" d="M 519.949219 163.695312 L 519.9375 166.425781 L 511.546875 161.578125 L 511.554688 158.84375 Z M 519.949219 163.695312 " fill-opacity="1" fill-rule="nonzero"/><path fill="#e4e8f4" d="M 519.914062 175.800781 L 519.90625 178.535156 L 511.515625 173.6875 L 511.523438 170.953125 Z M 519.914062 175.800781 " fill-opacity="1" fill-rule="nonzero"/><path fill="#e4e8f4" d="M 519.878906 187.933594 L 519.871094 190.644531 L 511.480469 185.796875 L 511.488281 183.082031 Z M 519.878906 187.933594 " fill-opacity="1" fill-rule="nonzero"/><path fill="#e4e8f4" d="M 519.84375 200.042969 L 519.835938 202.753906 L 511.445312 197.902344 L 511.453125 195.191406 Z M 519.84375 200.042969 " fill-opacity="1" fill-rule="nonzero"/><path fill="#e4e8f4" d="M 519.8125 212.152344 L 519.804688 214.886719 L 511.410156 210.035156 L 511.417969 207.300781 Z M 519.8125 212.152344 " fill-opacity="1" fill-rule="nonzero"/><path fill="#e4e8f4" d="M 519.777344 224.261719 L 519.769531 226.992188 L 511.375 222.144531 L 511.382812 219.410156 Z M 519.777344 224.261719 " fill-opacity="1" fill-rule="nonzero"/><path fill="#4c7891" d="M 528.347656 191.542969 C 528.960938 191.898438 529.441406 192.753906 529.441406 193.460938 L 529.328125 232.519531 L 527.140625 231.253906 L 527.25 192.191406 C 527.25 191.488281 527.738281 191.191406 528.347656 191.542969 Z M 528.347656 191.542969 " fill-opacity="1" fill-rule="nonzero"/><path fill="#416e84" d="M 533.820312 183.222656 C 534.433594 183.574219 534.914062 184.410156 534.914062 185.113281 L 534.769531 235.664062 L 532.558594 234.386719 L 532.703125 183.835938 C 532.707031 183.132812 533.207031 182.867188 533.820312 183.222656 Z M 533.820312 183.222656 " fill-opacity="1" fill-rule="nonzero"/><path fill="#d4dae8" d="M 553.054688 213.570312 C 553.667969 213.921875 554.167969 214.789062 554.167969 215.496094 L 554.078125 246.824219 L 551.867188 245.546875 L 551.957031 214.21875 C 551.960938 213.511719 552.445312 213.214844 553.054688 213.570312 Z M 553.054688 213.570312 " fill-opacity="1" fill-rule="nonzero"/><path fill="#e4e8f4" d="M 547.648438 198.957031 C 548.261719 199.3125 548.761719 200.175781 548.757812 200.859375 L 548.636719 243.679688 L 546.429688 242.402344 L 546.550781 199.582031 C 546.550781 198.898438 547.035156 198.601562 547.648438 198.957031 Z M 547.648438 198.957031 " fill-opacity="1" fill-rule="nonzero"/><path fill="#748bfd" d="M 566.875 238.710938 C 567.488281 239.066406 567.96875 239.921875 567.96875 240.625 L 567.929688 254.828125 L 565.71875 253.550781 L 565.757812 239.347656 C 565.761719 238.644531 566.265625 238.359375 566.875 238.710938 Z M 566.875 238.710938 " fill-opacity="1" fill-rule="nonzero"/><path fill="#576cfb" d="M 572.347656 230.386719 C 572.941406 230.730469 573.441406 231.574219 573.441406 232.28125 L 573.367188 257.972656 L 571.160156 256.695312 L 571.230469 231.003906 C 571.234375 230.300781 571.734375 230.035156 572.347656 230.386719 Z M 572.347656 230.386719 " fill-opacity="1" fill-rule="nonzero"/><path fill="#9ad898" d="M 586.238281 225.003906 C 586.847656 225.355469 587.332031 226.210938 587.328125 226.917969 L 587.21875 265.976562 L 585.027344 264.710938 L 585.136719 225.648438 C 585.140625 224.945312 585.625 224.648438 586.238281 225.003906 Z M 586.238281 225.003906 " fill-opacity="1" fill-rule="nonzero"/><path fill="#75ca75" d="M 591.640625 240.253906 C 592.253906 240.609375 592.738281 241.464844 592.734375 242.167969 L 592.65625 269.121094 L 590.449219 267.84375 L 590.523438 240.894531 C 590.527344 240.1875 591.03125 239.902344 591.640625 240.253906 Z M 591.640625 240.253906 " fill-opacity="1" fill-rule="nonzero"/><path fill="#fa5168" d="M 610.964844 239.296875 C 611.578125 239.648438 612.078125 240.515625 612.078125 241.21875 L 611.964844 280.28125 L 609.757812 279.003906 L 609.867188 239.945312 C 609.871094 239.238281 610.355469 238.941406 610.964844 239.296875 Z M 610.964844 239.296875 " fill-opacity="1" fill-rule="nonzero"/><path fill="#e29c40" d="M 613.910156 217.464844 L 613.902344 219.964844 L 605.027344 214.835938 C 604.433594 214.492188 603.953125 213.65625 603.957031 212.972656 C 603.957031 212.269531 604.441406 211.992188 605.035156 212.335938 Z M 613.910156 217.464844 " fill-opacity="1" fill-rule="nonzero"/><path fill="#f9607f" d="M 605.558594 224.683594 C 606.171875 225.035156 606.671875 225.882812 606.667969 226.585938 L 606.527344 277.136719 L 604.316406 275.859375 L 604.460938 225.308594 C 604.460938 224.605469 604.964844 224.339844 605.558594 224.683594 Z M 605.558594 224.683594 " fill-opacity="1" fill-rule="nonzero"/><path fill="#e29c40" d="M 600.007812 208.683594 C 600.972656 209.242188 601.75 210.589844 601.746094 211.675781 C 601.742188 212.808594 600.960938 213.234375 599.996094 212.675781 C 599.03125 212.117188 598.253906 210.792969 598.257812 209.660156 C 598.261719 208.570312 599.042969 208.125 600.007812 208.683594 Z M 600.007812 208.683594 " fill-opacity="1" fill-rule="nonzero"/><path fill="#3e60dd" d="M 588.085938 202.539062 L 588.078125 205.039062 L 579.203125 199.910156 C 578.609375 199.566406 578.128906 198.730469 578.128906 198.046875 C 578.132812 197.34375 578.617188 197.066406 579.210938 197.410156 Z M 588.085938 202.539062 " fill-opacity="1" fill-rule="nonzero"/><path fill="#3e60dd" d="M 574.183594 193.757812 C 575.148438 194.3125 575.925781 195.660156 575.921875 196.75 C 575.917969 197.882812 575.136719 198.308594 574.171875 197.75 C 573.203125 197.191406 572.445312 195.875 572.449219 194.746094 C 572.453125 193.65625 573.21875 193.199219 574.183594 193.757812 Z M 574.183594 193.757812 " fill-opacity="1" fill-rule="nonzero"/><path fill="#e63044" d="M 562.261719 187.613281 L 562.253906 190.113281 L 553.398438 184.996094 C 552.785156 184.640625 552.304688 183.804688 552.304688 183.121094 C 552.308594 182.417969 552.792969 182.140625 553.40625 182.496094 Z M 562.261719 187.613281 " fill-opacity="1" fill-rule="nonzero"/><path fill="#e63044" d="M 548.375 178.839844 C 549.324219 179.386719 550.101562 180.738281 550.097656 181.824219 C 550.09375 182.957031 549.3125 183.382812 548.363281 182.835938 C 547.378906 182.265625 546.621094 180.949219 546.625 179.820312 C 546.628906 178.730469 547.390625 178.273438 548.375 178.839844 Z M 548.375 178.839844 " fill-opacity="1" fill-rule="nonzero"/><path fill="#ffffff" d="M 527.074219 145.417969 C 528.757812 146.390625 530.117188 148.746094 530.109375 150.664062 C 530.105469 152.601562 528.738281 153.402344 527.054688 152.425781 C 525.386719 151.464844 524.027344 149.089844 524.035156 147.152344 C 524.039062 145.234375 525.40625 144.453125 527.074219 145.417969 Z M 527.074219 145.417969 " fill-opacity="1" fill-rule="nonzero"/><path fill="#ffffff" d="M 536.230469 150.710938 C 537.917969 151.6875 539.257812 154.03125 539.25 155.945312 C 539.246094 157.886719 537.898438 158.695312 536.210938 157.722656 C 534.527344 156.746094 533.171875 154.371094 533.175781 152.433594 C 533.179688 150.515625 534.546875 149.738281 536.230469 150.710938 Z M 536.230469 150.710938 " fill-opacity="1" fill-rule="nonzero"/><path fill="#ffffff" d="M 517.929688 140.132812 C 519.617188 141.109375 520.957031 143.453125 520.949219 145.367188 C 520.945312 147.308594 519.597656 148.117188 517.910156 147.144531 C 516.226562 146.167969 514.886719 143.804688 514.890625 141.867188 C 514.898438 139.949219 516.246094 139.160156 517.929688 140.132812 Z M 517.929688 140.132812 " fill-opacity="1" fill-rule="nonzero"/></svg>