<svg xmlns="http://www.w3.org/2000/svg" xmlns:xlink="http://www.w3.org/1999/xlink" width="500" zoomAndPan="magnify" viewBox="0 0 375 374.999991" height="500" preserveAspectRatio="xMidYMid meet" version="1.0"><defs><g/><clipPath id="1c8fd78951"><path d="M 157.015625 159.761719 L 229.839844 159.761719 L 229.839844 179.003906 L 157.015625 179.003906 Z M 157.015625 159.761719 " clip-rule="nonzero"/></clipPath></defs><g fill="#3e69a4" fill-opacity="1"><g transform="translate(91.188829, 214.88622)"><g><path d="M 40.695312 -49.234375 C 34.375 -52.226562 28.164062 -52.226562 27.609375 -52.226562 C 21.957031 -52.226562 16.523438 -55.554688 16.523438 -61.984375 C 16.523438 -69.082031 21.511719 -72.742188 27.609375 -72.742188 C 33.378906 -72.742188 38.257812 -69.75 38.476562 -63.425781 C 38.476562 -63.09375 39.03125 -62.539062 39.699219 -62.539062 L 53.558594 -62.539062 C 54.335938 -62.539062 54.890625 -63.09375 54.777344 -63.425781 C 54.558594 -78.507812 42.800781 -88.710938 27.609375 -88.710938 C 13.417969 -88.710938 0 -78.621094 0 -61.984375 C 0 -51.671875 5.210938 -43.800781 14.414062 -39.585938 C 20.847656 -36.59375 26.835938 -36.59375 27.609375 -36.59375 C 32.601562 -36.371094 38.699219 -32.378906 38.699219 -25.835938 C 38.699219 -19.960938 33.488281 -15.96875 27.609375 -15.96875 C 27.609375 -15.96875 27.609375 -15.96875 27.5 -15.96875 L 27.5 0 C 27.609375 0 27.609375 0 27.609375 0 C 41.804688 0 55.109375 -9.203125 55.109375 -25.835938 C 55.109375 -36.261719 50.011719 -44.910156 40.695312 -49.234375 Z M 40.695312 -49.234375 "/></g></g></g><g fill="#3e69a4" fill-opacity="1"><g transform="translate(161.267641, 214.88622)"><g><path d="M 36.148438 -15.191406 L 27.277344 -15.191406 L 27.277344 -88.710938 L 10.3125 -88.710938 L 10.3125 -15.191406 L 1.21875 -15.191406 C 0.554688 -15.191406 0 -14.746094 0 -14.195312 L 0 -0.996094 C 0 -0.554688 0.554688 0 1.21875 0 L 36.148438 0 C 36.925781 0 37.367188 -0.554688 37.367188 -0.996094 L 37.367188 -14.195312 C 37.367188 -14.746094 36.925781 -15.191406 36.148438 -15.191406 Z M 36.148438 -15.191406 "/></g></g></g><g fill="#3e69a4" fill-opacity="1"><g transform="translate(212.718129, 214.88622)"><g><path d="M 15.746094 -88.710938 L 1.21875 -88.710938 C 0.554688 -88.710938 0 -88.15625 0 -87.710938 L 0 -52.894531 L 16.964844 -52.894531 L 16.964844 -72.519531 C 36.261719 -73.519531 50.566406 -65.421875 50.566406 -44.355469 C 50.566406 -16.964844 27.722656 -15.855469 16.964844 -16.300781 L 16.964844 -35.816406 L 0 -35.816406 L 0 -0.996094 C 0 -0.554688 0.554688 0 1.21875 0 L 15.746094 0 C 37.8125 0 67.640625 -6.429688 67.640625 -44.355469 C 67.640625 -83.71875 37.367188 -88.710938 15.746094 -88.710938 Z M 15.746094 -88.710938 "/></g></g></g><g clip-path="url(#1c8fd78951)"><path fill="#ffffff" d="M 157.015625 159.761719 L 229.839844 159.761719 L 229.839844 179.003906 L 157.015625 179.003906 Z M 157.015625 159.761719 " fill-opacity="1" fill-rule="nonzero"/></g><g fill="#3e69a4" fill-opacity="1"><g transform="translate(147.188911, 173.24507)"><g><path d="M 4.53125 -7.296875 C 3.644531 -7.296875 2.953125 -7.007812 2.453125 -6.4375 C 1.953125 -5.863281 1.703125 -5.078125 1.703125 -4.078125 C 1.703125 -3.085938 1.960938 -2.289062 2.484375 -1.6875 C 3.003906 -1.082031 3.703125 -0.78125 4.578125 -0.78125 C 5.710938 -0.78125 6.566406 -1.34375 7.140625 -2.46875 L 8.03125 -2.015625 C 7.695312 -1.316406 7.226562 -0.785156 6.625 -0.421875 C 6.019531 -0.0664062 5.320312 0.109375 4.53125 0.109375 C 3.71875 0.109375 3.015625 -0.0546875 2.421875 -0.390625 C 1.828125 -0.734375 1.375 -1.21875 1.0625 -1.84375 C 0.75 -2.46875 0.59375 -3.210938 0.59375 -4.078125 C 0.59375 -5.359375 0.941406 -6.363281 1.640625 -7.09375 C 2.335938 -7.820312 3.300781 -8.1875 4.53125 -8.1875 C 5.382812 -8.1875 6.097656 -8.019531 6.671875 -7.6875 C 7.253906 -7.351562 7.679688 -6.851562 7.953125 -6.1875 L 6.921875 -5.84375 C 6.734375 -6.320312 6.429688 -6.679688 6.015625 -6.921875 C 5.597656 -7.171875 5.101562 -7.296875 4.53125 -7.296875 Z M 4.53125 -7.296875 "/></g></g></g><g fill="#3e69a4" fill-opacity="1"><g transform="translate(155.663799, 173.24507)"><g/></g></g><g fill="#3e69a4" fill-opacity="1"><g transform="translate(158.919996, 173.24507)"><g/></g></g><g fill="#3e69a4" fill-opacity="1"><g transform="translate(162.180881, 173.24507)"><g><path d="M 6.6875 0 L 5.765625 -2.359375 L 2.078125 -2.359375 L 1.15625 0 L 0.015625 0 L 3.3125 -8.078125 L 4.5625 -8.078125 L 7.796875 0 Z M 3.921875 -7.25 L 3.875 -7.09375 C 3.78125 -6.769531 3.640625 -6.363281 3.453125 -5.875 L 2.421875 -3.21875 L 5.4375 -3.21875 L 4.40625 -5.875 C 4.289062 -6.144531 4.179688 -6.441406 4.078125 -6.765625 Z M 3.921875 -7.25 "/></g></g></g><g fill="#3e69a4" fill-opacity="1"><g transform="translate(173.254894, 173.24507)"><g/></g></g><g fill="#3e69a4" fill-opacity="1"><g transform="translate(176.515779, 173.24507)"><g><path d="M 6.203125 0 L 1.875 -6.875 L 1.90625 -6.3125 L 1.9375 -5.359375 L 1.9375 0 L 0.96875 0 L 0.96875 -8.078125 L 2.234375 -8.078125 L 6.59375 -1.15625 C 6.550781 -1.90625 6.53125 -2.445312 6.53125 -2.78125 L 6.53125 -8.078125 L 7.515625 -8.078125 L 7.515625 0 Z M 6.203125 0 "/></g></g></g><g fill="#3e69a4" fill-opacity="1"><g transform="translate(184.990668, 173.24507)"><g/></g></g><g fill="#3e69a4" fill-opacity="1"><g transform="translate(188.246865, 173.24507)"><g/></g></g><g fill="#3e69a4" fill-opacity="1"><g transform="translate(191.50775, 173.24507)"><g><path d="M 4.125 -7.171875 L 4.125 0 L 3.03125 0 L 3.03125 -7.171875 L 0.265625 -7.171875 L 0.265625 -8.078125 L 6.90625 -8.078125 L 6.90625 -7.171875 Z M 4.125 -7.171875 "/></g></g></g><g fill="#3e69a4" fill-opacity="1"><g transform="translate(198.668494, 173.24507)"><g/></g></g><g fill="#3e69a4" fill-opacity="1"><g transform="translate(201.924691, 173.24507)"><g/></g></g><g fill="#3e69a4" fill-opacity="1"><g transform="translate(205.185576, 173.24507)"><g><path d="M 1.078125 0 L 1.078125 -8.078125 L 2.171875 -8.078125 L 2.171875 0 Z M 1.078125 0 "/></g></g></g><g fill="#3e69a4" fill-opacity="1"><g transform="translate(208.444117, 173.24507)"><g/></g></g><g fill="#3e69a4" fill-opacity="1"><g transform="translate(211.700314, 173.24507)"><g/></g></g><g fill="#3e69a4" fill-opacity="1"><g transform="translate(214.961199, 173.24507)"><g><path d="M 6.34375 0 L 3.109375 -3.890625 L 2.0625 -3.09375 L 2.0625 0 L 0.96875 0 L 0.96875 -8.078125 L 2.0625 -8.078125 L 2.0625 -4.03125 L 5.953125 -8.078125 L 7.234375 -8.078125 L 3.796875 -4.5625 L 7.6875 0 Z M 6.34375 0 "/></g></g></g></svg>