<svg xmlns="http://www.w3.org/2000/svg" xmlns:xlink="http://www.w3.org/1999/xlink" width="500" zoomAndPan="magnify" viewBox="0 0 375 374.999991" height="500" preserveAspectRatio="xMidYMid meet" version="1.0"><defs><g/><clipPath id="9c4433230b"><path d="M 84.199219 91.683594 L 258.585938 91.683594 L 258.585938 258.703125 L 84.199219 258.703125 Z M 84.199219 91.683594 " clip-rule="nonzero"/></clipPath><clipPath id="91579c7075"><path d="M 105.796875 112.410156 L 280.183594 112.410156 L 280.183594 279.429688 L 105.796875 279.429688 Z M 105.796875 112.410156 " clip-rule="nonzero"/></clipPath><clipPath id="4cd1d8954b"><path d="M 105.796875 112.410156 L 258.585938 112.410156 L 258.585938 258.703125 L 105.796875 258.703125 Z M 105.796875 112.410156 " clip-rule="nonzero"/></clipPath><clipPath id="07f1daff73"><path d="M 146.078125 171.859375 L 224.082031 171.859375 L 224.082031 189.074219 L 146.078125 189.074219 Z M 146.078125 171.859375 " clip-rule="nonzero"/></clipPath></defs><g clip-path="url(#9c4433230b)"><path fill="#737373" d="M 84.199219 91.683594 L 258.585938 91.683594 L 258.585938 258.703125 L 84.199219 258.703125 Z M 84.199219 91.683594 " fill-opacity="1" fill-rule="nonzero"/></g><g clip-path="url(#91579c7075)"><path fill="#737373" d="M 105.796875 112.410156 L 280.183594 112.410156 L 280.183594 279.429688 L 105.796875 279.429688 Z M 105.796875 112.410156 " fill-opacity="1" fill-rule="nonzero"/></g><g clip-path="url(#4cd1d8954b)"><path fill="#ffffff" d="M 105.796875 112.410156 L 258.585938 112.410156 L 258.585938 258.703125 L 105.796875 258.703125 Z M 105.796875 112.410156 " fill-opacity="1" fill-rule="nonzero"/></g><g fill="#545454" fill-opacity="1"><g transform="translate(92.159208, 223.405491)"><g><path d="M 38.8125 -46.957031 C 32.785156 -49.8125 26.863281 -49.8125 26.332031 -49.8125 C 20.941406 -49.8125 15.757812 -52.984375 15.757812 -59.117188 C 15.757812 -65.886719 20.515625 -69.375 26.332031 -69.375 C 31.832031 -69.375 36.488281 -66.519531 36.699219 -60.492188 C 36.699219 -60.175781 37.226562 -59.648438 37.859375 -59.648438 L 51.082031 -59.648438 C 51.820312 -59.648438 52.351562 -60.175781 52.246094 -60.492188 C 52.03125 -74.875 40.824219 -84.605469 26.332031 -84.605469 C 12.796875 -84.605469 0 -74.980469 0 -59.117188 C 0 -49.28125 4.96875 -41.773438 13.75 -37.753906 C 19.882812 -34.898438 25.59375 -34.898438 26.332031 -34.898438 C 31.09375 -34.6875 36.910156 -30.882812 36.910156 -24.640625 C 36.910156 -19.035156 31.9375 -15.230469 26.332031 -15.230469 C 26.332031 -15.230469 26.332031 -15.230469 26.226562 -15.230469 L 26.226562 0 C 26.332031 0 26.332031 0 26.332031 0 C 39.871094 0 52.5625 -8.777344 52.5625 -24.640625 C 52.5625 -34.582031 47.695312 -42.832031 38.8125 -46.957031 Z M 38.8125 -46.957031 "/></g></g></g><g fill="#545454" fill-opacity="1"><g transform="translate(158.996777, 223.405491)"><g><path d="M 34.476562 -14.488281 L 26.015625 -14.488281 L 26.015625 -84.605469 L 9.835938 -84.605469 L 9.835938 -14.488281 L 1.164062 -14.488281 C 0.527344 -14.488281 0 -14.066406 0 -13.535156 L 0 -0.953125 C 0 -0.527344 0.527344 0 1.164062 0 L 34.476562 0 C 35.21875 0 35.640625 -0.527344 35.640625 -0.953125 L 35.640625 -13.535156 C 35.640625 -14.066406 35.21875 -14.488281 34.476562 -14.488281 Z M 34.476562 -14.488281 "/></g></g></g><g fill="#545454" fill-opacity="1"><g transform="translate(208.067707, 223.405491)"><g><path d="M 15.015625 -84.605469 L 1.164062 -84.605469 C 0.527344 -84.605469 0 -84.078125 0 -83.652344 L 0 -50.445312 L 16.179688 -50.445312 L 16.179688 -69.164062 C 34.582031 -70.117188 48.226562 -62.398438 48.226562 -42.304688 C 48.226562 -16.179688 26.4375 -15.125 16.179688 -15.546875 L 16.179688 -34.160156 L 0 -34.160156 L 0 -0.953125 C 0 -0.527344 0.527344 0 1.164062 0 L 15.015625 0 C 36.0625 0 64.511719 -6.132812 64.511719 -42.304688 C 64.511719 -79.847656 35.640625 -84.605469 15.015625 -84.605469 Z M 15.015625 -84.605469 "/></g></g></g><g clip-path="url(#07f1daff73)"><path fill="#ffffff" d="M 146.078125 171.859375 L 224.082031 171.859375 L 224.082031 189.074219 L 146.078125 189.074219 Z M 146.078125 171.859375 " fill-opacity="1" fill-rule="nonzero"/></g><g fill="#000000" fill-opacity="1"><g transform="translate(147.769214, 184.119055)"><g><path d="M 4.25 -6.84375 C 3.414062 -6.84375 2.765625 -6.570312 2.296875 -6.03125 C 1.828125 -5.488281 1.59375 -4.75 1.59375 -3.8125 C 1.59375 -2.882812 1.835938 -2.140625 2.328125 -1.578125 C 2.816406 -1.015625 3.472656 -0.734375 4.296875 -0.734375 C 5.359375 -0.734375 6.15625 -1.257812 6.6875 -2.3125 L 7.53125 -1.890625 C 7.21875 -1.234375 6.773438 -0.734375 6.203125 -0.390625 C 5.640625 -0.0546875 4.988281 0.109375 4.25 0.109375 C 3.488281 0.109375 2.828125 -0.046875 2.265625 -0.359375 C 1.710938 -0.679688 1.289062 -1.132812 1 -1.71875 C 0.707031 -2.3125 0.5625 -3.007812 0.5625 -3.8125 C 0.5625 -5.019531 0.882812 -5.96875 1.53125 -6.65625 C 2.1875 -7.34375 3.09375 -7.6875 4.25 -7.6875 C 5.050781 -7.6875 5.722656 -7.523438 6.265625 -7.203125 C 6.804688 -6.890625 7.203125 -6.425781 7.453125 -5.8125 L 6.484375 -5.484375 C 6.304688 -5.921875 6.019531 -6.253906 5.625 -6.484375 C 5.238281 -6.722656 4.78125 -6.84375 4.25 -6.84375 Z M 4.25 -6.84375 "/></g></g></g><g fill="#000000" fill-opacity="1"><g transform="translate(155.714526, 184.119055)"><g/></g></g><g fill="#000000" fill-opacity="1"><g transform="translate(158.768508, 184.119055)"><g/></g></g><g fill="#000000" fill-opacity="1"><g transform="translate(161.831713, 184.119055)"><g><path d="M 6.265625 0 L 5.40625 -2.21875 L 1.953125 -2.21875 L 1.078125 0 L 0.015625 0 L 3.109375 -7.5625 L 4.28125 -7.5625 L 7.3125 0 Z M 3.671875 -6.796875 L 3.625 -6.640625 C 3.539062 -6.347656 3.410156 -5.96875 3.234375 -5.5 L 2.265625 -3.015625 L 5.09375 -3.015625 L 4.125 -5.515625 C 4.019531 -5.753906 3.921875 -6.03125 3.828125 -6.34375 Z M 3.671875 -6.796875 "/></g></g></g><g fill="#000000" fill-opacity="1"><g transform="translate(169.16765, 184.119055)"><g/></g></g><g fill="#000000" fill-opacity="1"><g transform="translate(172.221632, 184.119055)"><g/></g></g><g fill="#000000" fill-opacity="1"><g transform="translate(175.284837, 184.119055)"><g><path d="M 5.8125 0 L 1.765625 -6.453125 L 1.78125 -5.921875 L 1.8125 -5.03125 L 1.8125 0 L 0.90625 0 L 0.90625 -7.5625 L 2.09375 -7.5625 L 6.1875 -1.078125 C 6.144531 -1.773438 6.125 -2.285156 6.125 -2.609375 L 6.125 -7.5625 L 7.046875 -7.5625 L 7.046875 0 Z M 5.8125 0 "/></g></g></g><g fill="#000000" fill-opacity="1"><g transform="translate(183.230149, 184.119055)"><g/></g></g><g fill="#000000" fill-opacity="1"><g transform="translate(186.284131, 184.119055)"><g/></g></g><g fill="#000000" fill-opacity="1"><g transform="translate(189.347337, 184.119055)"><g><path d="M 3.875 -6.734375 L 3.875 0 L 2.84375 0 L 2.84375 -6.734375 L 0.25 -6.734375 L 0.25 -7.5625 L 6.46875 -7.5625 L 6.46875 -6.734375 Z M 3.875 -6.734375 "/></g></g></g><g fill="#000000" fill-opacity="1"><g transform="translate(196.06218, 184.119055)"><g/></g></g><g fill="#000000" fill-opacity="1"><g transform="translate(199.116161, 184.119055)"><g/></g></g><g fill="#000000" fill-opacity="1"><g transform="translate(202.179367, 184.119055)"><g><path d="M 1.015625 0 L 1.015625 -7.5625 L 2.046875 -7.5625 L 2.046875 0 Z M 1.015625 0 "/></g></g></g><g fill="#000000" fill-opacity="1"><g transform="translate(205.237961, 184.119055)"><g/></g></g><g fill="#000000" fill-opacity="1"><g transform="translate(208.291942, 184.119055)"><g/></g></g><g fill="#000000" fill-opacity="1"><g transform="translate(211.355148, 184.119055)"><g><path d="M 5.9375 0 L 2.921875 -3.65625 L 1.921875 -2.90625 L 1.921875 0 L 0.90625 0 L 0.90625 -7.5625 L 1.921875 -7.5625 L 1.921875 -3.78125 L 5.578125 -7.5625 L 6.78125 -7.5625 L 3.5625 -4.28125 L 7.21875 0 Z M 5.9375 0 "/></g></g></g></svg>